<svg width="36" height="22" viewBox="0 0 36 22" fill="none" xmlns="http://www.w3.org/2000/svg">
<path d="M22.8404 4.33979H23.6556C24.5587 4.33979 25.0103 3.94679 25.0103 3.16078C25.0103 2.37476 24.5587 1.98176 23.6556 1.98176H22.8404V4.33979ZM22.8404 8.22805C22.8404 8.90691 22.29 9.45724 21.6112 9.45724C20.9323 9.45724 20.382 8.90691 20.382 8.22805V1.56784C20.382 0.701947 21.0839 0 21.9498 0H24.2953C25.3573 0 26.1684 0.27594 26.7286 0.827822C27.2972 1.3797 27.5815 2.15735 27.5815 3.16078C27.5815 4.1642 27.2972 4.94185 26.7286 5.49373C26.1684 6.04561 25.3573 6.32155 24.2953 6.32155H22.8404V8.22805Z" fill="black"/>
<path d="M30.6796 16.8826H31.4949C32.3979 16.8826 32.8495 16.4895 32.8495 15.7035C32.8495 14.9175 32.3979 14.5245 31.4949 14.5245H30.6796V16.8826ZM30.6796 20.7708C30.6796 21.4497 30.1293 22 29.4504 22C28.7715 22 28.2212 21.4497 28.2212 20.7708V14.1106C28.2212 13.2447 28.9232 12.5428 29.789 12.5428H32.1345C33.1965 12.5428 34.0076 12.8187 34.5678 13.3706C35.1364 13.9225 35.4207 14.7001 35.4207 15.7035C35.4207 16.707 35.1364 17.4846 34.5678 18.0365C34.0076 18.5884 33.1965 18.8643 32.1345 18.8643H30.6796V20.7708Z" fill="black"/>
<path d="M10.0485 4.22691H10.5126C10.9976 4.22691 11.3697 4.12657 11.6289 3.92588C11.8882 3.7252 12.0178 3.43672 12.0178 3.06043C12.0178 2.68415 11.8882 2.39567 11.6289 2.19498C11.3697 1.9943 10.9976 1.89396 10.5126 1.89396C10.2563 1.89396 10.0485 2.10173 10.0485 2.35804V4.22691ZM15.4545 9.45724H12.394L10.0485 5.81984V9.45724H7.59016V1.04523C7.59016 0.467965 8.05813 0 8.6354 0H11.4157C11.9425 0 12.4024 0.0794374 12.7954 0.238312C13.1884 0.388826 13.5103 0.597871 13.7612 0.86545C14.0204 1.13303 14.2127 1.44242 14.3382 1.79361C14.472 2.14481 14.5389 2.52109 14.5389 2.92246C14.5389 3.64158 14.3633 4.22691 14.0121 4.67845C13.6692 5.12163 13.1591 5.42265 12.4818 5.58153L15.4545 9.45724Z" fill="black"/>
<path d="M17.8878 16.7697H18.3519C18.8368 16.7697 19.2089 16.6693 19.4682 16.4686C19.7274 16.268 19.857 15.9795 19.857 15.6032C19.857 15.2269 19.7274 14.9384 19.4682 14.7377C19.2089 14.5371 18.8368 14.4367 18.3519 14.4367C18.0955 14.4367 17.8878 14.6445 17.8878 14.9008V16.7697ZM23.2937 22H20.2333L17.8878 18.3626V22H15.4294V13.588C15.4294 13.0107 15.8974 12.5428 16.4746 12.5428H19.2549C19.7817 12.5428 20.2416 12.6222 20.6346 12.7811C21.0276 12.9316 21.3496 13.1406 21.6004 13.4082C21.8596 13.6758 22.052 13.9852 22.1774 14.3364C22.3112 14.6876 22.3781 15.0639 22.3781 15.4652C22.3781 16.1843 22.2025 16.7697 21.8513 17.2212C21.5084 17.6644 20.9984 17.9654 20.3211 18.1243L23.2937 22Z" fill="black"/>
<path d="M4.47776 2.23679V8.22805C4.47776 8.90691 3.92744 9.45724 3.24857 9.45724C2.56971 9.45724 2.01938 8.90691 2.01938 8.22805V2.23679H1.1184C0.500723 2.23679 0 1.73607 0 1.1184C0 0.500723 0.500723 0 1.1184 0H5.37875C5.99643 0 6.49715 0.500723 6.49715 1.1184C6.49715 1.73607 5.99643 2.23679 5.37875 2.23679H4.47776Z" fill="black"/>
<path d="M18.0302 3.13569C18.7518 3.13569 19.3368 3.72065 19.3368 4.44223V8.10053C19.3368 8.82211 18.7518 9.40707 18.0302 9.40707C17.3086 9.40707 16.7237 8.82211 16.7237 8.10053V4.44223C16.7237 3.72065 17.3086 3.13569 18.0302 3.13569Z" fill="#F66A6A"/>
<path d="M19.3368 1.30654C19.3368 2.02812 18.7518 2.61307 18.0302 2.61307C17.3086 2.61307 16.7237 2.02812 16.7237 1.30654C16.7237 0.584957 17.3086 0 18.0302 0C18.7518 0 19.3368 0.584957 19.3368 1.30654Z" fill="#F66A6A"/>
<path d="M12.317 14.7796V20.7708C12.317 21.4497 11.7667 22 11.0878 22C10.4089 22 9.85861 21.4497 9.85861 20.7708V14.7796H8.95762C8.33995 14.7796 7.83922 14.2788 7.83922 13.6612C7.83922 13.0435 8.33995 12.5428 8.95762 12.5428H13.218C13.8356 12.5428 14.3364 13.0435 14.3364 13.6612C14.3364 14.2788 13.8356 14.7796 13.218 14.7796H12.317Z" fill="black"/>
<path d="M25.8694 15.6784C26.591 15.6784 27.176 16.2634 27.176 16.985V20.6433C27.176 21.3649 26.591 21.9498 25.8694 21.9498C25.1479 21.9498 24.5629 21.3649 24.5629 20.6433V16.985C24.5629 16.2634 25.1479 15.6784 25.8694 15.6784Z" fill="#F66A6A"/>
<path d="M27.176 13.8493C27.176 14.5709 26.591 15.1558 25.8694 15.1558C25.1479 15.1558 24.5629 14.5709 24.5629 13.8493C24.5629 13.1277 25.1479 12.5428 25.8694 12.5428C26.591 12.5428 27.176 13.1277 27.176 13.8493Z" fill="#F66A6A"/>
</svg>
