<svg width="7" height="12" viewBox="0 0 7 12" fill="none" xmlns="http://www.w3.org/2000/svg">
<path d="M2.3748 5.575L6.2748 1.675C6.45814 1.49167 6.5498 1.25833 6.5498 0.975C6.5498 0.691667 6.45814 0.458333 6.2748 0.275C6.09147 0.0916667 5.85814 0 5.5748 0C5.29147 0 5.05814 0.0916667 4.8748 0.275L0.274805 4.875C0.174805 4.975 0.103971 5.08333 0.0623045 5.2C0.020638 5.31667 -0.000195503 5.44167 -0.000195503 5.575C-0.000195503 5.70833 0.020638 5.83333 0.0623045 5.95C0.103971 6.06667 0.174805 6.175 0.274805 6.275L4.8748 10.875C5.05814 11.0583 5.29147 11.15 5.5748 11.15C5.85814 11.15 6.09147 11.0583 6.2748 10.875C6.45814 10.6917 6.5498 10.4583 6.5498 10.175C6.5498 9.89167 6.45814 9.65833 6.2748 9.475L2.3748 5.575Z" fill="#C7C7C7"/>
</svg>
